<svg width="24" height="24" viewBox="0 0 24 24" fill="none" xmlns="http://www.w3.org/2000/svg">
<path d="M3 2C3 0.89543 3.89543 0 5 0H19.7826C20.8872 0 21.7826 0.895431 21.7826 2V14C21.7826 19.5228 17.3055 24 11.7826 24H5C3.89543 24 3 23.1046 3 22V2Z" fill="#56AAFF"/>
<path fill-rule="evenodd" clip-rule="evenodd" d="M5.87075 1.5625C5.15038 1.5625 4.56641 2.14648 4.56641 2.86685C4.56641 3.58722 5.15038 4.1712 5.87075 4.1712H16.8281V7.30112H21.7846V2.60547H21.7753C21.7809 2.54843 21.7838 2.49059 21.7838 2.43207C21.7838 1.95182 21.3945 1.5625 20.9142 1.5625H5.87075Z" fill="white"/>
<path d="M8.21875 4.17188H20.784C21.3363 4.17188 21.784 4.61959 21.784 5.17188V22.998C21.784 23.5502 21.3363 23.998 20.784 23.998H8.21875V4.17188Z" fill="#D9DCE1"/>
<path d="M8.21875 3.11328C8.21875 2.83714 8.44261 2.61328 8.71875 2.61328H12.4144C12.6905 2.61328 12.9144 2.83714 12.9144 3.11328V10.5486C12.9144 10.9479 12.4693 11.1861 12.1371 10.9646L10.8439 10.1025C10.676 9.99057 10.4572 9.99057 10.2892 10.1025L8.9961 10.9646C8.66382 11.1861 8.21875 10.9479 8.21875 10.5486V3.11328Z" fill="#0477EA"/>
</svg>
