<svg width="24" height="24" viewBox="0 0 24 24" fill="none" xmlns="http://www.w3.org/2000/svg">
<rect y="1.63623" width="24" height="21.8182" rx="2" fill="#D9DCE1"/>
<path d="M0 3.63623C0 2.53166 0.895431 1.63623 2 1.63623H22C23.1046 1.63623 24 2.53166 24 3.63623V7.09078H0V3.63623Z" fill="#56AAFF"/>
<path d="M5.45456 0.818182C5.45456 0.366313 5.82087 0 6.27274 0C6.72461 0 7.09092 0.366313 7.09092 0.818182V4.36364H5.45456V0.818182Z" fill="#0477EA"/>
<path d="M16.9091 0.818182C16.9091 0.366313 17.2754 0 17.7273 0C18.1791 0 18.5455 0.366313 18.5455 0.818182V4.36364H16.9091V0.818182Z" fill="#0477EA"/>
<path d="M11.5547 11.0997C11.7402 10.7361 12.2598 10.7361 12.4454 11.0997L13.4991 13.1644C13.5717 13.3068 13.708 13.4059 13.8659 13.431L16.1552 13.795C16.5583 13.8592 16.7189 14.3533 16.4304 14.6422L14.7923 16.2823C14.6794 16.3954 14.6273 16.5557 14.6522 16.7136L15.0134 19.0033C15.077 19.4065 14.6566 19.7119 14.2928 19.5268L12.2267 18.4758C12.0843 18.4033 11.9158 18.4033 11.7733 18.4758L9.70724 19.5268C9.34337 19.7119 8.92303 19.4065 8.98663 19.0033L9.34779 16.7136C9.37269 16.5557 9.32061 16.3954 9.20767 16.2823L7.56962 14.6422C7.28114 14.3533 7.44169 13.8592 7.84487 13.795L10.1341 13.431C10.292 13.4059 10.4283 13.3068 10.501 13.1644L11.5547 11.0997Z" fill="white"/>
</svg>
