<svg width="24" height="24" viewBox="0 0 24 24" fill="none" xmlns="http://www.w3.org/2000/svg">
<path d="M17.5274 8.20716C19.3731 8.20716 20.8693 6.71096 20.8693 4.8653C20.8693 3.01964 19.3731 1.52344 17.5274 1.52344C15.6817 1.52344 14.1855 3.01964 14.1855 4.8653C14.1855 6.71096 15.6817 8.20716 17.5274 8.20716Z" fill="#D9DCE1"/>
<path d="M20.2569 23.3445L14.5308 23.4235H12.6055V12.3314L12.873 12.2743C13.7565 12.0858 15.9837 11.9347 18.2899 11.9067C18.5612 11.9049 19.0123 11.8673 19.4704 11.8291C20.2126 11.7671 20.9728 11.7037 21.0159 11.7888C21.824 13.3867 22.8061 17.9006 22.9527 21.214C23.0204 22.7448 23.0069 22.9313 22.8127 23.1459C22.5249 23.4639 22.1067 23.446 21.8377 23.1042C21.7169 22.9506 21.3623 22.0411 21.0496 21.0831C20.7371 20.1251 20.4307 19.3412 20.3691 19.3412C20.3032 19.3412 20.2569 20.1676 20.2569 21.343V23.3445Z" fill="#D9DCE1"/>
<path d="M8.41203 7.18373C10.2577 7.18373 11.7539 5.68753 11.7539 3.84187C11.7539 1.9962 10.2577 0.5 8.41203 0.5C6.56636 0.5 5.07016 1.9962 5.07016 3.84187C5.07016 5.68753 6.56636 7.18373 8.41203 7.18373Z" fill="#56AAFF"/>
<path d="M5.21825 9.46837C5.98282 8.89105 6.61138 8.66564 7.8515 8.52368C10.879 8.17736 16.2586 8.802 19.612 9.88935C21.2566 10.4226 21.4565 10.5494 21.4565 11.0605C21.4565 11.8634 21.1332 11.9687 18.4348 12.0013C16.1286 12.0293 13.8098 12.0834 12.9262 12.272L12.6587 12.329V23.3811H4.21769V21.1222C4.21769 19.8799 4.1756 18.8634 4.12412 18.8634C4.07264 18.8634 3.66141 19.8303 3.21035 21.012C2.40024 23.1347 2.17769 23.5 1.69452 23.5C1.57837 23.5 1.37626 23.393 1.24548 23.2622C0.932928 22.9497 0.931501 22.0737 1.23942 19.8008C1.97023 14.4083 3.3208 10.901 5.21825 9.46837Z" fill="#56AAFF"/>
</svg>
