<svg width="24" height="24" viewBox="0 0 24 24" fill="none" xmlns="http://www.w3.org/2000/svg">
<circle cx="10.5394" cy="5.23077" r="5.23077" fill="#D9DCE1"/>
<path d="M20.8656 20.9228H1.17328C-1.28809 9.23111 23.3271 8.61599 20.8656 20.9228Z" fill="#D9DCE1"/>
<circle cx="18.2299" cy="18.4603" r="5.53846" fill="#0477EA"/>
<path d="M20.0396 16.8688C20.1109 17.2269 20.0743 17.5981 19.9346 17.9355C19.7949 18.2728 19.5582 18.5611 19.2546 18.764C19.1263 18.8498 18.9884 18.9186 18.8444 18.9695V19.6905H17.6136V17.8444H18.229C18.3507 17.8444 18.4697 17.8083 18.5709 17.7406C18.6721 17.673 18.7509 17.5769 18.7975 17.4645C18.8441 17.352 18.8563 17.2283 18.8325 17.1089C18.8088 16.9895 18.7502 16.8799 18.6641 16.7938C18.578 16.7078 18.4684 16.6492 18.349 16.6254C18.2296 16.6017 18.1059 16.6138 17.9935 16.6604C17.881 16.707 17.7849 16.7859 17.7173 16.8871C17.6497 16.9883 17.6136 17.1073 17.6136 17.229H16.3828C16.3828 16.8638 16.4911 16.5069 16.6939 16.2033C16.8968 15.8997 17.1851 15.6631 17.5225 15.5233C17.8598 15.3836 18.231 15.3471 18.5891 15.4183C18.9473 15.4895 19.2762 15.6654 19.5344 15.9235C19.7926 16.1817 19.9684 16.5107 20.0396 16.8688Z" fill="white"/>
<path d="M17.6136 20.9213C17.6136 20.5814 17.8891 20.3059 18.229 20.3059C18.5688 20.3059 18.8444 20.5814 18.8444 20.9213C18.8444 21.2611 18.5688 21.5367 18.229 21.5367C17.8891 21.5367 17.6136 21.2611 17.6136 20.9213Z" fill="white"/>
</svg>
