<svg width="24" height="24" viewBox="0 0 24 24" fill="none" xmlns="http://www.w3.org/2000/svg">
<path d="M11.508 3.80672C11.8138 3.63341 12.1882 3.63341 12.494 3.80672L20.9677 8.60847C21.2811 8.78603 21.4747 9.11835 21.4747 9.47849V21.4747C21.4747 22.027 21.027 22.4747 20.4747 22.4747H3.52734C2.97506 22.4747 2.52734 22.027 2.52734 21.4747V9.47849C2.52734 9.11835 2.721 8.78603 3.03433 8.60847L11.508 3.80672Z" fill="#D9DCE1"/>
<path fill-rule="evenodd" clip-rule="evenodd" d="M11.715 1.19766C11.8864 1.07879 12.1136 1.07879 12.285 1.19766L23.5779 9.03076C23.8091 9.19116 23.8625 9.51075 23.6959 9.73758L22.5156 11.3446C22.3552 11.5629 22.0502 11.6139 21.8276 11.4595L12.285 4.84042C12.1136 4.72154 11.8864 4.72154 11.715 4.84042L2.17237 11.4595C1.9498 11.6139 1.64477 11.5629 1.48442 11.3446L0.304097 9.73758C0.137496 9.51075 0.190855 9.19116 0.422109 9.03076L11.715 1.19766Z" fill="#56AAFF"/>
<path d="M9.47266 15.3945C9.47266 15.1184 9.69651 14.8945 9.97266 14.8945H14.0253C14.3014 14.8945 14.5253 15.1184 14.5253 15.3945V22.4735H9.47266V15.3945Z" fill="white"/>
</svg>
