<svg width="24" height="24" viewBox="0 0 24 24" fill="none" xmlns="http://www.w3.org/2000/svg">
<path fill-rule="evenodd" clip-rule="evenodd" d="M12.6693 1H11.3359V5H12.6693V1ZM12.0026 19.6693C15.6845 19.6693 18.6693 16.6845 18.6693 13.0026C18.6693 9.32071 15.6845 6.33594 12.0026 6.33594C8.32071 6.33594 5.33594 9.32071 5.33594 13.0026C5.33594 16.6845 8.32071 19.6693 12.0026 19.6693ZM20.1641 3.66406L21.1069 4.60687L18.2784 7.4353L17.3356 6.49249L20.1641 3.66406ZM2.66657 4.60687L3.60938 3.66406L6.4378 6.49249L5.49499 7.4353L2.66657 4.60687ZM0 12.3359V13.6693L4 13.6693V12.3359H0ZM24 13.6693L20 13.6693V12.3359H24V13.6693Z" fill="#D9DCE1"/>
<path fill-rule="evenodd" clip-rule="evenodd" d="M10.3752 11.9609L12.0014 13.5872L13.6276 11.9609L15.0418 13.3752L12.7085 15.7085L12.6693 15.7477V19.0026H11.3359V15.7502L11.2943 15.7085L8.96094 13.3752L10.3752 11.9609Z" fill="white"/>
<path d="M10.3359 21.6641H13.6693L13.4967 22.5268C13.4032 22.9943 12.9928 23.3307 12.5161 23.3307H11.4891C11.0124 23.3307 10.602 22.9943 10.5085 22.5268L10.3359 21.6641Z" fill="#0477EA"/>
<path d="M9 19H15V20C15 21.1046 14.1046 22 13 22H11C9.89543 22 9 21.1046 9 20V19Z" fill="#56AAFF"/>
</svg>
