<svg width="107" height="38" viewBox="0 0 107 38" fill="none" xmlns="http://www.w3.org/2000/svg">
<path d="M49.975 12.375H53.325V26H49.975V24.425C48.8083 25.6917 47.3583 26.325 45.625 26.325C43.6583 26.325 42.0417 25.6417 40.775 24.275C39.5083 22.9083 38.875 21.1917 38.875 19.125C38.875 17.075 39.5167 15.3833 40.8 14.05C42.0833 12.7 43.6917 12.025 45.625 12.025C47.325 12.025 48.775 12.6833 49.975 14V12.375ZM50.025 19.175C50.025 18.1083 49.6583 17.1833 48.925 16.4C48.2083 15.6333 47.3 15.25 46.2 15.25C45.0833 15.25 44.1667 15.6333 43.45 16.4C42.75 17.1667 42.4 18.0917 42.4 19.175C42.4 20.275 42.7583 21.2083 43.475 21.975C44.1917 22.7417 45.1 23.125 46.2 23.125C47.3 23.125 48.2083 22.7417 48.925 21.975C49.6583 21.1917 50.025 20.2583 50.025 19.175ZM59.5195 26H55.9945V7H59.5195V26ZM65.559 10.225C65.1423 10.6417 64.6257 10.85 64.009 10.85C63.3923 10.85 62.8757 10.6417 62.459 10.225C62.0423 9.80833 61.834 9.29167 61.834 8.675C61.834 8.05833 62.0423 7.55 62.459 7.15C62.8757 6.73333 63.3923 6.525 64.009 6.525C64.6257 6.525 65.1423 6.73333 65.559 7.15C65.9757 7.55 66.184 8.05833 66.184 8.675C66.184 9.29167 65.9757 9.80833 65.559 10.225ZM65.759 26H62.234V12.375H65.759V26ZM75.6479 9.525C73.9645 9.525 73.1229 10.3167 73.1229 11.9V12.375H77.3479V15.325H73.1229V26H69.5979V15.325H67.4979V12.375H69.5979V11.825C69.5979 10.0583 70.1062 8.71667 71.1229 7.8C72.1562 6.86667 73.4895 6.4 75.1229 6.4C76.4729 6.4 77.7645 6.73333 78.9979 7.4L77.8479 10.1C76.9812 9.71667 76.2479 9.525 75.6479 9.525Z" fill="#222222"/>
<path d="M83.85 26V7.075H86.175V14.25C87.0917 12.9167 88.5083 12.25 90.425 12.25C91.9083 12.25 93.1583 12.7333 94.175 13.7C95.1917 14.6667 95.7 16.0583 95.7 17.875V26H93.325V18.55C93.325 17.2667 93.0083 16.2583 92.375 15.525C91.775 14.825 90.9583 14.475 89.925 14.475C88.8417 14.475 87.9583 14.85 87.275 15.6C86.5917 16.3667 86.25 17.35 86.25 18.55V26H83.85ZM98.7553 26V12.6H101.03V14.575C101.814 13.025 103.097 12.25 104.88 12.25C105.364 12.25 105.889 12.3167 106.455 12.45L106.23 14.775C105.764 14.625 105.297 14.55 104.83 14.55C103.73 14.55 102.855 14.9167 102.205 15.65C101.505 16.4167 101.155 17.5 101.155 18.9V26H98.7553Z" fill="#222222"/>
<path fill-rule="evenodd" clip-rule="evenodd" d="M17.0161 37.9156C14.451 37.6751 12.0462 36.9537 9.80176 35.7513C5.55329 33.4267 2.26673 29.4988 0.743698 24.5289C-0.69918 19.559 0.0222587 14.4288 2.34689 10.2605C5.39297 4.64927 11.2446 0.801599 17.4971 0H17.6574L19.2606 4.00799C19.1805 4.00799 19.1003 4.00799 19.1003 4.00799C13.8098 4.32863 8.5192 7.45487 5.95409 12.1843C4.11041 15.4709 3.62945 19.4788 4.75169 23.3265C5.87393 27.2544 8.5192 30.3004 11.8058 32.0639C13.5693 33.0259 15.4931 33.587 17.4971 33.8275C21.9059 34.2283 25.9941 32.7854 29.2004 30.2203C29.3608 30.0599 29.5211 29.9798 29.6814 29.8195L31.2846 33.8275C27.3568 36.7934 22.3067 38.3966 17.0161 37.9156ZM21.3448 9.3787H16.2947L9.64144 25.8115H13.9701L18.8598 13.0661L23.7496 25.8115H28.0782L21.3448 9.3787Z" fill="#485563"/>
</svg>
