<svg width="24" height="24" viewBox="0 0 24 24" fill="none" xmlns="http://www.w3.org/2000/svg">
<path d="M15.0969 1.83242C15.3172 1.90937 15.2286 2.26744 14.9952 2.2696C9.88866 2.31688 5.45381 6.98671 5.45381 12.0564C5.45381 17.0461 9.96964 21.7084 14.8035 21.8379C15.04 21.8442 15.1378 22.2401 14.9143 22.3175C13.6548 22.7541 12.1955 23.1127 11.0564 23.1127C4.95011 23.1127 0 18.1626 0 12.0564C0 5.95011 4.95011 1 11.0564 1C12.2449 1 13.7947 1.37771 15.0969 1.83242Z" fill="#D9DCE1"/>
<path d="M18.0536 7.40607C18.1608 7.24466 18.4119 7.31467 18.4201 7.50824L18.5596 10.8093C18.5633 10.8959 18.6223 10.9702 18.7057 10.9935L21.8883 11.8809C22.0749 11.9329 22.0859 12.1934 21.9044 12.261L18.808 13.4137C18.7268 13.444 18.6743 13.523 18.678 13.6096L18.8175 16.9106C18.8257 17.1042 18.5814 17.1952 18.461 17.0434L16.4078 14.4548C16.354 14.3869 16.2625 14.3614 16.1813 14.3916L13.085 15.5444C12.9034 15.612 12.7414 15.4078 12.8486 15.2464L14.676 12.4938C14.7239 12.4216 14.7199 12.3267 14.6661 12.2589L12.6129 9.67027C12.4925 9.51848 12.6367 9.3013 12.8233 9.35334L16.0059 10.2407C16.0893 10.264 16.1783 10.2309 16.2262 10.1587L18.0536 7.40607Z" fill="#56AAFF"/>
</svg>
