<svg width="24" height="24" viewBox="0 0 24 24" fill="none" xmlns="http://www.w3.org/2000/svg">
<path fill-rule="evenodd" clip-rule="evenodd" d="M8.28516 23C7.73287 23 7.28516 22.5523 7.28516 22V3.35934H5.71484V1.00215H7.28516V0.999512H20.9998C22.1043 0.999512 22.9998 1.89494 22.9998 2.99951V22C22.9998 22.5523 22.5521 23 21.9998 23H8.28516Z" fill="#D9DCE1"/>
<path fill-rule="evenodd" clip-rule="evenodd" d="M7.28745 15.9455H4.93141H4.14453H2.57422V11.4454C2.57422 10.8931 3.02193 10.4454 3.57422 10.4454H4.14453V2.58806C4.14453 1.72017 4.8481 1.0166 5.71599 1.0166C6.58389 1.0166 7.28745 1.72017 7.28745 2.58806V15.9455Z" fill="#56AAFF"/>
<path d="M1 14.3582C1 15.2261 1.70357 15.9297 2.57146 15.9297C3.43936 15.9297 4.14292 15.2261 4.14292 14.3582V6.50092H2C1.44772 6.50092 1 6.94864 1 7.50092V14.3582Z" fill="#0477EA"/>
<rect x="11.2148" y="15.1445" width="7.85731" height="0.785731" fill="white"/>
<rect x="11.2148" y="12.0039" width="7.85731" height="0.785731" fill="white"/>
<rect x="15.1445" y="8.85938" width="3.92865" height="0.785731" fill="white"/>
<rect x="15.1445" y="5.71484" width="3.92865" height="0.785731" fill="white"/>
</svg>
