<svg width="24" height="24" viewBox="0 0 24 24" fill="none" xmlns="http://www.w3.org/2000/svg">
<circle cx="12.1298" cy="12.1298" r="9.12982" fill="#56AAFF"/>
<path d="M11.693 7.71993C11.8825 7.37246 12.3814 7.37246 12.5709 7.71993L13.6436 9.68675C13.7155 9.81861 13.8429 9.91116 13.9905 9.93881L16.1925 10.3512C16.5815 10.424 16.7357 10.8985 16.4638 11.1861L14.9247 12.8141C14.8215 12.9232 14.7729 13.0729 14.7922 13.2219L15.0805 15.4436C15.1314 15.8361 14.7278 16.1293 14.3702 15.9596L12.3464 14.9989C12.2107 14.9345 12.0532 14.9345 11.9175 14.9989L9.89369 15.9596C9.53614 16.1293 9.1325 15.8361 9.18343 15.4436L9.47171 13.2219C9.49104 13.0729 9.44239 12.9232 9.3392 12.8141L7.80011 11.1861C7.5282 10.8985 7.68238 10.424 8.0714 10.3512L10.2734 9.93881C10.4211 9.91116 10.5484 9.81861 10.6204 9.68675L11.693 7.71993Z" fill="white"/>
</svg>
