<svg width="24" height="24" viewBox="0 0 24 24" fill="none" xmlns="http://www.w3.org/2000/svg">
<path fill-rule="evenodd" clip-rule="evenodd" d="M21.9439 5.7532C21.9439 7.2306 20.7462 8.42828 19.2688 8.42828C17.7914 8.42828 16.5938 7.2306 16.5938 5.7532C16.5938 4.2758 17.7914 3.07812 19.2688 3.07812C20.7462 3.07812 21.9439 4.2758 21.9439 5.7532ZM10.1859 8.51658C9.49075 8.55472 7.27146 8.79069 6.6579 8.89164C5.6279 9.06111 3.97971 9.4647 3.02549 9.78108C1.96174 10.1338 1.69958 10.3215 1.69958 10.7303C1.69958 10.9179 1.74497 11.0103 1.9166 11.1722L2.13363 11.3769L1.97204 11.6565C1.35644 12.7216 0.692218 14.8445 0.372979 16.7672C0.179414 17.9329 -0.0430742 20.0545 0.00720815 20.2548C0.0678522 20.4965 0.323905 20.7402 0.517152 20.7402C0.83245 20.7402 0.96963 20.5075 1.62267 18.865C1.97019 17.9909 2.36565 17.0326 2.50149 16.7354L2.74846 16.1951L2.79054 16.5129C2.81374 16.6878 2.83516 17.9249 2.83822 19.2623L2.84381 21.6938H5.8633C7.83391 21.6938 8.88278 21.6717 8.88278 21.6302C8.88278 21.5887 9.97278 21.5666 12.0257 21.5666C14.0523 21.5666 15.1824 21.5892 15.2078 21.6302C15.2331 21.6711 16.3209 21.6938 18.2628 21.6938H21.2786V19.043C21.2786 17.3688 21.3008 16.4144 21.339 16.4526C21.4483 16.562 22.1424 18.1451 22.5885 19.3028C23.0903 20.6047 23.1412 20.668 23.5662 20.5181C23.7166 20.465 23.8776 20.3717 23.9238 20.3107C24.0738 20.1131 23.9993 18.9729 23.7261 17.2831C23.3735 15.1037 22.9713 13.6632 22.281 12.1074L21.9622 11.3888L22.0892 11.2492C22.4782 10.8218 22.4333 10.3557 21.9812 10.1271C21.4148 9.84064 19.4682 9.28023 18.1319 9.0189C15.9565 8.59337 12.6237 8.38271 10.1859 8.51658ZM4.62039 8.42828C6.09779 8.42828 7.29546 7.2306 7.29546 5.7532C7.29546 4.2758 6.09779 3.07812 4.62039 3.07812C3.14298 3.07812 1.94531 4.2758 1.94531 5.7532C1.94531 7.2306 3.14298 8.42828 4.62039 8.42828Z" fill="#D9DCE1"/>
<path fill-rule="evenodd" clip-rule="evenodd" d="M11.9407 7.65093C13.4181 7.65093 14.6158 6.45326 14.6158 4.97586C14.6158 3.49845 13.4181 2.30078 11.9407 2.30078C10.4633 2.30078 9.26562 3.49845 9.26562 4.97586C9.26562 6.45326 10.4633 7.65093 11.9407 7.65093ZM5.38679 9.13377C6.68702 8.85153 7.55256 8.73247 9.71572 8.53833C9.83809 8.52733 10.8393 8.51392 11.9406 8.50845C14.9226 8.49371 17.1976 8.73234 19.4416 9.29543C20.1443 9.4717 21.7255 9.98514 21.9952 10.1246C22.3407 10.3033 22.3837 10.8015 22.0836 11.1503L21.9343 11.3239L19.9728 11.333C18.2427 11.341 16.8705 11.4105 15.85 11.5419L15.5322 11.5828L15.5159 16.5403L15.4997 21.4977L11.9879 21.487L8.47614 21.4764L8.45987 16.4936L8.44359 11.5107L7.82419 11.436C6.49892 11.276 5.18814 11.2159 3.677 11.2457L2.11984 11.2765L1.90491 11.0615C1.71815 10.8748 1.69488 10.8171 1.72679 10.6202C1.74701 10.4957 1.80066 10.3489 1.84611 10.2943C2.07349 10.0202 3.58413 9.5251 5.38679 9.13377Z" fill="#56AAFF"/>
</svg>
