<svg width="24" height="24" viewBox="0 0 24 24" fill="none" xmlns="http://www.w3.org/2000/svg">
<circle cx="12" cy="12" r="11" fill="white"/>
<path d="M3.5 3.5C5.77892 1.22108 8.92902 0 12.1519 0C15.3892 0 18.4266 1.34026 20.6951 3.60871C20.7208 3.63445 20.7607 3.67337 20.8084 3.71986C20.9155 3.82427 21.0619 3.96699 21.1744 4.08393L22.1701 3.57881C22.5121 3.40531 22.914 3.6655 22.8957 4.04854L22.7009 8.13093C22.6826 8.51381 22.258 8.73457 21.9341 8.52961L18.44 6.31874C18.1122 6.11133 18.1352 5.62583 18.4811 5.45032L19.4618 4.9528C19.443 4.93433 19.4245 4.91591 19.4062 4.89762C17.4586 2.95006 14.8769 1.82278 12.1519 1.82278C9.41245 1.82278 6.7852 2.91103 4.84811 4.84811C3.02917 6.66706 1.95868 9.09456 1.83487 11.6521C1.82152 11.9279 1.59893 12.1519 1.32278 12.1519H0.5C0.223858 12.1519 -0.00102278 11.9279 0.00979842 11.652C0.129287 8.60514 1.33907 5.66092 3.5 3.5Z" fill="#D9DCE1"/>
<path d="M20.5 20.5C18.2211 22.7789 15.071 24 11.8481 24C8.6108 24 5.57337 22.6597 3.30491 20.3913C3.27918 20.3656 3.23925 20.3266 3.19156 20.2801C3.08446 20.1757 2.93806 20.033 2.82558 19.9161L1.82992 20.4212C1.48794 20.5947 1.08599 20.3345 1.10427 19.9515L1.29912 15.8691C1.31739 15.4862 1.74198 15.2654 2.0659 15.4704L5.56003 17.6813C5.88784 17.8887 5.86484 18.3742 5.5189 18.5497L4.53823 19.0472C4.55696 19.0657 4.57553 19.0841 4.59382 19.1024C6.54137 21.0499 9.12306 22.1772 11.8481 22.1772C14.5876 22.1772 17.2148 21.089 19.1519 19.1519C20.9708 17.3329 22.0413 14.9054 22.1651 12.3479C22.1785 12.0721 22.4011 11.8481 22.6772 11.8481H23.5C23.7761 11.8481 24.001 12.0721 23.9902 12.348C23.8707 15.3949 22.6609 18.3391 20.5 20.5Z" fill="#D9DCE1"/>
<path fill-rule="evenodd" clip-rule="evenodd" d="M12.0517 11.977C13.4934 11.977 14.662 10.8576 14.662 9.47676C14.662 8.09594 13.4934 6.97656 12.0517 6.97656C10.6101 6.97656 9.44141 8.09594 9.44141 9.47676C9.44141 10.8576 10.6101 11.977 12.0517 11.977ZM17.1948 16.9858H7.36772C6.13943 11.3975 18.4231 11.1035 17.1948 16.9858Z" fill="#56AAFF"/>
</svg>
